<?xml version="1.0" encoding="utf-8"?>
<!-- Generator: Adobe Illustrator 26.0.2, SVG Export Plug-In . SVG Version: 6.00 Build 0)  -->
<svg version="1.1" xmlns="http://www.w3.org/2000/svg" xmlns:xlink="http://www.w3.org/1999/xlink" x="0px" y="0px"
	 viewBox="0 0 78.6 66.4" style="enable-background:new 0 0 78.6 66.4;" xml:space="preserve">
<style type="text/css">
	.st0{fill:#F09178;}
	.st1{fill:#F3F3F3;}
	.st2{fill:#EAEAEA;}
	.st3{fill:#EBEBEB;}
	.st4{fill:#FFFFFF;}
	.st5{fill:#151515;}
	.st6{fill:#01C4C7;}
	.st7{fill:#99ECEC;}
	.st8{fill:#EDCDC7;}
	.st9{clip-path:url(#SVGID_00000144316471423718586160000006220583156843293839_);}
	.st10{clip-path:url(#SVGID_00000086690836067379400530000002500031550911223212_);fill:url(#);}
	.st11{fill:none;stroke:#000000;stroke-width:0.5;stroke-miterlimit:10;}
	.st12{fill:none;}
	.st13{fill:#E1E1E1;}
	.st14{clip-path:url(#SVGID_00000014602476874577972590000009927358489943650745_);fill:#EBEBEB;}
	.st15{clip-path:url(#SVGID_00000031897667555202523610000009292657708337955748_);fill:#EBEBEB;}
	.st16{fill:#CECECE;}
	.st17{clip-path:url(#SVGID_00000034051503732363158520000016081839353808116907_);enable-background:new    ;}
	.st18{clip-path:url(#SVGID_00000118392203916869416010000006258446374009170050_);}
	.st19{clip-path:url(#SVGID_00000027575228380403200480000014085656814892117174_);}
	.st20{opacity:0;}
	.st21{clip-path:url(#SVGID_00000176006737767431588700000011741086350765510283_);enable-background:new    ;}
	.st22{clip-path:url(#SVGID_00000050636810555982459190000016221630093672180887_);}
	.st23{clip-path:url(#SVGID_00000062910498781832275870000011776830536918441129_);}
	.st24{clip-path:url(#SVGID_00000116925420176538136360000012766475705048677039_);fill:#EBEBEB;}
	.st25{clip-path:url(#SVGID_00000052097834774114556900000000009828485846228908_);fill:#EBEBEB;}
	.st26{clip-path:url(#SVGID_00000037660581254639649720000008418501438165957035_);}
	.st27{clip-path:url(#SVGID_00000037660581254639649720000008418501438165957035_);fill:#EBEBEB;}
	.st28{clip-path:url(#SVGID_00000110462862522124389500000008605576155735995058_);fill:#EBEBEB;}
	.st29{clip-path:url(#SVGID_00000175314737649247005170000004746129665498945944_);fill:#EBEBEB;}
	.st30{clip-path:url(#SVGID_00000009566618600935208410000012566640746845905080_);}
	.st31{clip-path:url(#SVGID_00000160878512096800106380000016236706170987453313_);fill:url(#);}
	.st32{clip-path:url(#SVGID_00000129178192159541150230000017435850338972526210_);}
	.st33{fill:#828282;}
	.st34{clip-path:url(#SVGID_00000116933152430319567250000014704609223938032307_);fill:#D9DADC;}
	.st35{clip-path:url(#SVGID_00000054245144327635992780000004293083984691374231_);}
	.st36{clip-path:url(#SVGID_00000088816809820246443120000012554995308623718024_);}
	.st37{clip-path:url(#SVGID_00000129164542786453307870000010449083140080578438_);fill:#D9DADC;}
	.st38{clip-path:url(#SVGID_00000068653202535815377610000007045065811040354189_);}
	.st39{clip-path:url(#SVGID_00000035523570364349792120000004837081410737116811_);}
	.st40{clip-path:url(#SVGID_00000083076666327813504150000000125466076911112349_);fill:#D9DADC;}
	.st41{clip-path:url(#SVGID_00000159438738017304525590000013416355225881366205_);}
	.st42{clip-path:url(#SVGID_00000159464516965036497990000010378200557148045474_);}
	.st43{clip-path:url(#SVGID_00000106855078916590970650000017814380196583322550_);fill:#D9DADC;}
	.st44{clip-path:url(#SVGID_00000148650727079027273700000016327908252549341355_);}
	.st45{clip-path:url(#SVGID_00000044141512045453744020000017072453203097453221_);}
	.st46{fill:#A9ADB4;}
	.st47{clip-path:url(#SVGID_00000023984032087474962640000014729527210478933427_);fill:#FFFFFF;}
	.st48{clip-path:url(#SVGID_00000129204010564697319190000007918798606130377139_);}
	.st49{clip-path:url(#SVGID_00000058549851720501307070000012455248530066438571_);fill:url(#);}
	.st50{fill:#FF5988;}
	.st51{clip-path:url(#SVGID_00000040538583978028625320000012869296587407899572_);fill:#FFFFFF;}
	.st52{clip-path:url(#SVGID_00000082344233701085987030000007182592516666050698_);}
	.st53{clip-path:url(#SVGID_00000066517453234707039080000009870644941624501896_);fill:url(#);}
	.st54{clip-path:url(#SVGID_00000131363621906470908130000015822039200783160448_);}
	.st55{clip-path:url(#SVGID_00000141416073805935969740000002018301612722993584_);}
	.st56{clip-path:url(#SVGID_00000148641096071124936650000017477951265823739553_);}
	.st57{clip-path:url(#SVGID_00000096743223135111325140000002320343790867243928_);}
	.st58{clip-path:url(#SVGID_00000067931671563315089410000003742573502855711922_);fill:#FFFFFF;}
	.st59{clip-path:url(#SVGID_00000137100813067516236370000013896981280685921202_);}
	.st60{clip-path:url(#SVGID_00000132057122573241271020000000380155948288676488_);}
	.st61{clip-path:url(#SVGID_00000145029941946055322820000007303560584581648522_);}
	.st62{clip-path:url(#SVGID_00000179629619719036958160000013976233308284456363_);}
	.st63{clip-path:url(#SVGID_00000028289998126186817390000018108761550813712274_);}
	.st64{clip-path:url(#SVGID_00000098190227292310448750000014050213462837846164_);}
	.st65{clip-path:url(#SVGID_00000088815029755969589330000012899730997280515205_);}
	.st66{clip-path:url(#SVGID_00000047027795688096773190000005828553505491414173_);}
	.st67{clip-path:url(#SVGID_00000009584426617511441080000011235769852070282388_);}
	.st68{clip-path:url(#SVGID_00000170278452061733599960000007629007148035470221_);}
	.st69{clip-path:url(#SVGID_00000145737438310546834590000014307313115576179886_);}
	.st70{clip-path:url(#SVGID_00000024688312757635334980000008988617190142499727_);}
	.st71{clip-path:url(#SVGID_00000174596946672618432060000015375768212323830444_);}
	.st72{clip-path:url(#SVGID_00000013192047053929020140000010370388340567259810_);}
	.st73{fill:#7890B8;}
	.st74{fill:#08BCAD;}
	.st75{clip-path:url(#SVGID_00000095321792576711974370000001101893826522173838_);}
	.st76{clip-path:url(#SVGID_00000146490213608647591100000006494479823121722776_);}
	.st77{clip-path:url(#SVGID_00000143595920349442216770000007780567948962187449_);}
	.st78{clip-path:url(#SVGID_00000031916583419908125860000000656020257911309204_);}
	.st79{clip-path:url(#SVGID_00000058571796616622996810000015858507858530651827_);}
	.st80{clip-path:url(#SVGID_00000162335113103702295590000014680284939016063677_);}
	.st81{clip-path:url(#SVGID_00000131362055724718924850000004642923095673754796_);}
	.st82{clip-path:url(#SVGID_00000115504765665660920890000005416869912974619814_);}
	.st83{clip-path:url(#SVGID_00000020382829797144789880000003506897988823966619_);fill:#EBEBEB;}
</style>
<g id="Capa_2">
</g>
<g id="Capa_1">
	<g>
		<g>
			<path class="st6" d="M55.8,32c0,0.7,0.9,1.3,2,1.3c1.1,0,2-0.6,2-1.3c0-0.7-0.9-1.3-2-1.3C56.7,30.7,55.8,31.3,55.8,32"/>
			<path class="st6" d="M59.8,35.5c0,0.5,0.6,0.9,1.4,0.9c0.8,0,1.4-0.4,1.4-0.9s-0.6-0.9-1.4-0.9C60.4,34.6,59.8,35,59.8,35.5"/>
			<path class="st6" d="M63.6,38.2c0,0.3,0.4,0.5,0.8,0.5s0.8-0.2,0.8-0.5s-0.4-0.5-0.8-0.5S63.6,37.9,63.6,38.2"/>
			<path class="st7" d="M47.4,4.6c4.1,3.6,1.9,5.7,2.5,7.4c0.5,1.7,2.4,3.6,3.3,5.5c0.4,0.8-2.6,0.9-2.6,0.9s-0.1,3.7-1.4,4.7
				c-1.7,1.4-5.3,1-10.6-0.5c0,0,0.9,5.5,6,7c7.5,2.3,12-2.8,12-2.8c3.1,3.3,9.9,6.1,14.3,3c2.9-2.1,0.8-6.4,0.8-6.4
				c7.2-2.4,6.6-10.8-0.8-12c0,0-0.6-5.1-6.8-6.6c-3.9-1-8.6,1.7-8.6,1.7C51.8,2.1,44.4,1.3,38.7,3C38.7,3,44.1,1.7,47.4,4.6"/>
			<path class="st6" d="M66.4,31.7c-3.7,0-7.5-1.9-9.7-4.1c-0.5,0.5-1.5,1.3-2.9,1.9c-2,0.9-5.2,1.8-9.2,0.6
				c-5.3-1.6-6.3-7.2-6.4-7.4c0-0.2,0-0.4,0.2-0.5c0.1-0.1,0.4-0.2,0.5-0.1c5.3,1.6,8.6,1.8,10,0.6c0.8-0.6,1.1-3,1.2-4.3
				c0-0.3,0.2-0.5,0.5-0.5c0.8,0,1.6-0.2,2-0.4c-0.4-0.8-0.9-1.6-1.5-2.3c-0.7-1.1-1.4-2.1-1.7-3.1c-0.2-0.6-0.1-1.2-0.1-1.9
				C49.5,8.9,49.7,7.4,47,5c-3.1-2.7-8.1-1.5-8.2-1.5c-0.3,0.1-0.6-0.1-0.7-0.4c-0.1-0.3,0.1-0.6,0.4-0.7c5.4-1.6,13-1.2,17.3,3.4
				c1.3-0.7,5.2-2.4,8.6-1.6c3.3,0.9,5.1,2.7,6,4.1c0.7,1.1,1,2,1.1,2.5c3.3,0.7,5.7,2.9,5.9,5.8c0.3,3-1.6,5.7-4.9,7
				c0.5,1.3,1.4,4.6-1.2,6.5C69.9,31.3,68.2,31.7,66.4,31.7 M56.7,26.3c0.2,0,0.3,0.1,0.4,0.2c1.5,1.7,4,3.1,6.4,3.7
				c2.8,0.7,5.3,0.4,7.2-0.9c2.5-1.8,0.6-5.7,0.6-5.7c-0.1-0.1-0.1-0.3,0-0.4c0.1-0.1,0.2-0.3,0.3-0.3c3.1-1,4.9-3.4,4.7-6
				c-0.2-2.5-2.3-4.4-5.4-4.9c-0.3,0-0.4-0.2-0.5-0.5c0-0.2-0.7-4.7-6.3-6.2C60.5,4.4,56,7,56,7c-0.2,0.1-0.6,0.1-0.7-0.1
				C52.8,4,48.9,2.8,45.1,2.7C46.1,3,47,3.5,47.8,4.2c3.1,2.7,2.8,4.7,2.7,6.2c-0.1,0.6-0.1,1,0,1.4c0.3,0.8,0.9,1.8,1.6,2.8
				c0.6,0.9,1.2,1.8,1.6,2.7c0.1,0.3,0.1,0.5,0,0.8c-0.4,0.6-1.6,0.8-2.5,0.9c-0.1,1.1-0.4,3.7-1.5,4.6c-1.7,1.3-4.8,1.3-10.1-0.1
				c0.5,1.5,1.9,4.6,5.4,5.7c2.9,0.9,5.8,0.7,8.3-0.5c1.9-0.9,3-2.1,3-2.1C56.4,26.4,56.5,26.3,56.7,26.3L56.7,26.3z"/>
			<path class="st6" d="M38.7,2.9c0,0-5.3-1.3-8.7,1.7c-4.1,3.6-1.9,5.7-2.5,7.4c-0.5,1.7-2.4,3.6-3.3,5.5c-0.4,0.8,2.6,0.9,2.6,0.9
				s0.1,3.7,1.4,4.7c1.7,1.4,5.4,1,10.6-0.5c0,0-1,5.5-6,7c-7.5,2.3-12-2.8-12-2.8c-0.5,1.7-0.6,3.1-2.1,5.6
				c-2.4,4.1-8.8,7.1-10.5,5.3c0,0,3.1-0.3,5.9-7.4c0,0-4.9,2.1-7.6-0.6c-2.5-2.5-0.8-6.4-0.8-6.4C-10.6,18,15.9-4.3,38.7,2.9"/>
			<path class="st7" d="M9.7,38.8c-1.1,0-1.7-0.3-2-0.7c-0.5-0.7,2.9-1.3,5.3-6.8c-1.7,0.5-4.9,0.9-7.1-1.1
				c-2.2-2.2-1.5-5.2-1.1-6.4c-4.1-1.6-5.7-4.4-4.4-8C2,11.4,7.5,6.8,14.5,3.9C19.3,2,28.7-0.8,38.9,2.4c0.3,0.1,0.5,0.4,0.4,0.7
				c-0.1,0.3-0.4,0.4-0.7,0.4c-0.1,0-5.1-1.2-8.2,1.5c-2.7,2.4-2.5,3.9-2.3,5.3c0.1,0.7,0.2,1.3-0.1,1.9c-0.3,1-1,2-1.7,3.1
				c-0.5,0.8-1.1,1.6-1.5,2.3c0.3,0.1,1.2,0.3,2,0.4c0.3,0,0.5,0.2,0.5,0.5c0,1.4,0.4,3.7,1.2,4.3c1.4,1.1,4.7,0.9,10.1-0.6
				c0.2-0.1,0.4,0,0.5,0.1c0.2,0.1,0.2,0.3,0.2,0.5c0,0.2-1.1,5.8-6.4,7.4c-4.1,1.2-7.3,0.3-9.2-0.6c-1.2-0.6-2-1.2-2.6-1.7
				c0,0,0,0,0,0.1c-0.3,1.3-0.6,2.7-1.9,4.8c-1.9,3.3-6.1,5.8-8.9,6.1C10,38.8,9.8,38.8,9.7,38.8 M9.6,37.7c0.2,0,0.3,0,0.5,0
				c2.4-0.3,6.3-2.6,8-5.5c1.2-2,1.5-3.2,1.8-4.5c0.1-0.3,0.2-0.7,0.3-1c0.1-0.2,0.2-0.3,0.4-0.4c0.2,0,0.4,0,0.6,0.2
				c0,0,1.1,1.2,3,2.1c2.6,1.2,5.4,1.4,8.3,0.5c3.5-1,4.9-4.1,5.4-5.7c-5.3,1.5-8.5,1.5-10.2,0.2c-1.1-0.9-1.5-3.5-1.5-4.6
				c-0.9-0.1-2.1-0.3-2.5-0.9c-0.2-0.2-0.2-0.5,0-0.8c0.4-0.9,1-1.8,1.6-2.7c0.7-1,1.3-2,1.6-2.8c0.1-0.4,0.1-0.9,0-1.4
				c-0.2-1.5-0.4-3.5,2.7-6.2c1.2-1,2.6-1.6,3.9-1.9c-7.8-1.1-14.7,1-18.5,2.6C8.3,7.7,3,12.1,1.5,16.1c-1.1,3.2,0.3,5.5,4.2,6.8
				c0.1,0,0.3,0.2,0.3,0.3c0.1,0.1,0.1,0.3,0,0.4c0,0-1.6,3.6,0.7,5.8c2.4,2.4,6.9,0.5,7,0.5c0.2-0.1,0.5-0.1,0.6,0.1
				c0.2,0.1,0.2,0.4,0.1,0.6C12.8,35.1,10.9,36.9,9.6,37.7"/>
			<path class="st8" d="M38.7,3c0,0-5.4-1.3-8.7,1.6c-4.1,3.6-1.9,5.7-2.5,7.4c-0.5,1.7-2.4,3.6-3.3,5.5c-0.4,0.8,2.6,0.9,2.6,0.9
				s0.1,3.7,1.4,4.7c1.7,1.4,5.4,1,10.6-0.5c5.2,1.5,8.9,1.9,10.6,0.5c1.2-1,1.4-4.7,1.4-4.7s2.9-0.2,2.6-0.9
				c-0.9-1.9-2.7-3.9-3.3-5.5c-0.6-1.8,1.6-3.8-2.5-7.4C44.1,1.7,38.7,3,38.7,3"/>
			<path class="st0" d="M31.3,24.6c-1.6,0-2.7-0.3-3.5-1c-1.1-0.9-1.5-3.5-1.5-4.6c-0.9-0.1-2.1-0.3-2.5-0.9c-0.2-0.2-0.2-0.5,0-0.8
				c0.4-0.9,1-1.8,1.6-2.7c0.7-1,1.3-2,1.6-2.8c0.1-0.4,0.1-0.9,0-1.4C26.7,9,26.5,7,29.6,4.2c3.3-2.9,8.2-2,9.1-1.8
				c0.9-0.2,5.9-1.1,9.2,1.8C51,7,50.7,9,50.5,10.4c-0.1,0.6-0.1,1,0,1.4c0.3,0.8,0.9,1.8,1.6,2.8c0.6,0.9,1.2,1.8,1.6,2.7
				c0.1,0.3,0.1,0.5,0,0.8c-0.4,0.6-1.6,0.8-2.5,0.9c-0.1,1.1-0.4,3.7-1.5,4.6c-1.8,1.4-5.2,1.3-11-0.4
				C35.6,24.1,33.1,24.6,31.3,24.6 M24.8,17.6c0.3,0.1,1.2,0.3,2,0.4c0.3,0,0.5,0.2,0.5,0.5c0,1.4,0.4,3.7,1.2,4.3
				c1.4,1.1,4.7,0.9,10.1-0.6c0.1,0,0.2,0,0.3,0c5.4,1.6,8.7,1.8,10.1,0.6c0.8-0.6,1.1-3,1.2-4.3c0-0.3,0.2-0.5,0.5-0.5
				c0.8,0,1.6-0.2,2-0.4c-0.4-0.8-0.9-1.6-1.5-2.3c-0.7-1.1-1.4-2.1-1.7-3.1c-0.2-0.6-0.1-1.2-0.1-1.9c0.2-1.4,0.4-2.9-2.3-5.3
				c-3.1-2.7-8.2-1.5-8.2-1.5c-0.1,0-0.2,0-0.3,0c-0.1,0-5.1-1.2-8.2,1.5c-2.7,2.4-2.5,3.9-2.3,5.3c0.1,0.7,0.2,1.3-0.1,1.9
				c-0.3,1-1,2-1.7,3.1C25.7,16,25.2,16.8,24.8,17.6"/>
			<path class="st0" d="M46.4,12.8c-2,0-3.3-1.3-3.4-1.3c-0.2-0.2-0.2-0.4,0-0.6c0.2-0.2,0.5-0.2,0.6,0c0.1,0.1,1.5,1.5,3.7,0.9
				c0.2-0.1,0.5,0.1,0.5,0.3c0.1,0.2-0.1,0.5-0.3,0.5C47.1,12.8,46.7,12.8,46.4,12.8"/>
			<path class="st0" d="M31.6,12.8c-0.4,0-0.8,0-1.2-0.1c-0.2-0.1-0.4-0.3-0.3-0.5c0.1-0.2,0.3-0.4,0.5-0.3c2.1,0.5,3.6-0.9,3.7-0.9
				c0.2-0.2,0.5-0.2,0.6,0c0.2,0.2,0.2,0.4,0,0.6C34.9,11.5,33.6,12.8,31.6,12.8"/>
		</g>
		<g>
			<path class="st0" d="M18.5,57v9c-1.6-0.1-3.1,0-4.5-0.2c-1.9-0.3-3.1-2.1-3.1-4.3c0-2.5,0-5,0-7.5c0-4.3,0-8.5,0-12.8
				c0-0.6,0.2-0.8,0.8-1c3.6-0.8,7.3-1,11-0.9c1.8,0.1,3.5,0.4,5.2,1.2c3.4,1.7,5.1,5,4.5,8.7c-0.7,4.7-4.6,7.9-9.8,8
				C21.2,57.2,19.9,57.1,18.5,57 M28.4,46.6c-0.1-0.7-0.5-1.7-2.6-2.2c-6.7-1.6-14,4.3-9.4,5.8c0,0-0.6,1.2,0.2,1.8
				c1.3,0.9,2.2,0.2,2.2,0.2c-0.8,2-1.7,2.1-1.7,2.1c0.5,0.5,2.2-0.8,2.7-1.3c0.4-0.5,0.7-1.3,0.9-1.8c0,0,1.3,1.4,3.4,0.8
				c1.4-0.4,1.7-2,1.7-2C27.7,49.3,28.6,48.2,28.4,46.6"/>
			<path class="st0" d="M34.3,57.7c2,1.7,4.2,2.4,6.6,2.6c1.7,0.1,3.4,0,5.1-0.2c1.1-0.1,1.6-1,1.7-2c0.1-0.9-0.3-1.6-1.2-1.9
				c-1.1-0.4-2.3-0.7-3.5-1c-1.4-0.4-2.8-0.6-4.2-1c-5.4-1.7-7-7-3.6-11.3c1.4-1.8,3.4-2.9,5.7-3.5c3.5-0.9,7-0.9,10.3,0.6
				c2.2,1,3.4,2.6,3.3,5c0,0.7,0,1.4,0,2.2c-0.2,0-0.3,0-0.3-0.1c-3.1-2.3-6.8-2.7-10.5-2.1c-0.7,0.1-1.4,0.4-1.9,0.9
				c-1,0.9-0.8,2.4,0.5,2.9c1.4,0.5,2.9,0.8,4.3,1.2c1.2,0.3,2.4,0.6,3.6,1c4.3,1.6,5.9,4.6,4.8,8.8c-0.9,3.2-3.2,5.1-6.4,6
				c-3.2,0.9-6.4,0.9-9.5,0.1c-3.2-0.8-4.7-2.7-4.7-5.8C34.3,59.3,34.3,58.6,34.3,57.7"/>
			<path class="st0" d="M66.9,49.1c0.8-1.2,1.6-2.3,2.3-3.5c1-1.8,1.8-3.6,2.7-5.5c0.2-0.4,0.4-0.7,0.9-0.6c1,0,2,0,3,0
				c2.3,0.1,3.4,1.6,2.5,3.6c-1.3,3.1-3.4,5.8-5.4,8.5c-0.7,0.9-1.3,1.7-2.1,2.6c-0.4,0.5-0.6,0.9-0.6,1.5c0,3.1,0,6.2,0,9.3
				c0,0.7-0.2,0.9-0.9,0.9c-0.8-0.1-1.7,0-2.5,0c-2.5-0.1-4.2-1.7-4.2-4.1c0-2,0-4.1,0-6.1c0-0.6-0.2-1.1-0.5-1.5
				c-3.4-4.2-6-8.8-7.9-13.8c-0.1-0.2-0.1-0.5-0.3-0.9c2,0.1,3.9,0.1,5.7,0.4c1.3,0.2,2.2,1.1,2.9,2.3c1.2,2.2,2.6,4.3,3.9,6.5
				C66.5,48.7,66.7,48.8,66.9,49.1"/>
			<path class="st0" d="M0,39.6c1.7,0,3.4-0.1,5,0c1.3,0.1,2.3,1.4,2.5,2.7c0,0.3,0,0.6,0,0.9c0,7.2,0,14.4,0,21.6v0.8
				c-1.7,0-3.3,0.2-4.8-0.1C1,65.4,0.3,64,0.1,62.4c0-0.3-0.1-0.7-0.1-1c0-7,0-14.1,0-21.1C0,40.1,0,39.8,0,39.6"/>
		</g>
	</g>
</g>
</svg>
